<svg viewBox="0 0 24 24" fill="none"><path d="M5.76.96a2.888 2.888 0 00-2.88 2.88v16.52c0 1.525 1.36 2.68 2.88 2.68h15.36v-.96H5.76c-1.037 0-1.92-.778-1.92-1.72 0-.94.864-1.64 1.92-1.64h15.36V.96H5.76zm0 .96h14.4v15.84H5.76c-.716 0-1.395.259-1.92.68V3.84c0-1.065.855-1.92 1.92-1.92zm3.497 4.32L6.72 13.642v.278h.96v-.12l.452-1.32h3.416L12 13.8v.12h.96v-.277L10.423 6.24H9.257zM9.84 7.5l1.378 4.02H8.462L9.84 7.5zm5.52.66c-.433 0-.827.156-1.082.435-.257.281-.358.647-.358 1.005h.96c0-.178.049-.292.107-.358.06-.066.146-.122.373-.122.199 0 .26.047.338.154.078.107.142.31.142.566v.33a1.415 1.415 0 00-.48-.09h-.48c-.79 0-1.44.65-1.44 1.44v.96c0 .79.65 1.44 1.44 1.44h.48c.37 0 .703-.146.96-.377.257.23.59.377.96.377v-.96a.472.472 0 01-.48-.48V9.84c0-.403-.086-.8-.323-1.129a1.39 1.39 0 00-1.117-.551zm-.48 2.88h.48c.266 0 .48.214.48.48v.96c0 .266-.214.48-.48.48h-.48a.479.479 0 01-.48-.48v-.96c0-.266.214-.48.48-.48z" fill="#232E52"/></svg>