<svg viewBox="0 0 24 25" fill="none"><path d="M12 1.46C5.909 1.46.96 6.409.96 12.5c0 6.091 4.949 11.04 11.04 11.04 6.091 0 11.04-4.949 11.04-11.04 0-6.091-4.949-11.04-11.04-11.04zm0 .96c5.573 0 10.08 4.507 10.08 10.08S17.573 22.58 12 22.58A10.073 10.073 0 011.92 12.5C1.92 6.927 6.427 2.42 12 2.42zm3.835 5.753a.48.48 0 00-.334.148L12 11.82l-3.5-3.5a.48.48 0 10-.68.678l3.501 3.501-3.5 3.5a.48.48 0 10.678.68L12 13.178l3.5 3.5a.482.482 0 00.791-.15.482.482 0 00-.112-.528l-3.5-3.501 3.5-3.5a.48.48 0 00-.344-.827z" fill="#232E52"/></svg>