<svg viewBox="0 0 24 25" fill="none"><g clip-path="url(#prefix__clip0_81_14)"><path d="M6.24 1.46a.48.48 0 00-.48.48v21.12a.48.48 0 00.722.414L12 20.256l5.518 3.218a.478.478 0 00.722-.414v-5.366a5.75 5.75 0 01-.96-.249v4.78l-5.038-2.94a.478.478 0 00-.484 0l-5.038 2.94V2.42h10.56v4.175c.31-.11.63-.193.96-.249V1.94a.48.48 0 00-.48-.48H6.24zm12.966 5.754c-2.64 0-4.8 2.16-4.8 4.8 0 2.64 2.16 4.8 4.8 4.8 2.64 0 4.8-2.16 4.8-4.8 0-2.64-2.16-4.8-4.8-4.8zm0 .96a3.851 3.851 0 013.84 3.84 3.851 3.851 0 01-3.84 3.84 3.851 3.851 0 01-3.84-3.84 3.851 3.851 0 013.84-3.84zm0 1.008c-.288 0-.48.192-.48.48v1.872h-1.873c-.288 0-.48.192-.48.48s.192.48.48.48h1.873v1.873c0 .288.192.48.48.48s.48-.192.48-.48v-1.873h1.872c.288 0 .48-.192.48-.48s-.192-.48-.48-.48h-1.872V9.662c0-.288-.192-.48-.48-.48z" fill="#232E52"/></g><defs><clipPath id="prefix__clip0_81_14"><path fill="#fff" transform="translate(0 .5)" d="M0 0h24v24H0z"/></clipPath></defs></svg>