<?xml version="1.0" encoding="utf-8"?>
<svg xmlns="http://www.w3.org/2000/svg" viewBox="0 0 50 50" width="500" height="500">
  <path d="M17.1875 10.9375C9.421875 10.9375 3.125 17.234375 3.125 25C3.125 32.765625 9.421875 39.0625 17.1875 39.0625C24.953125 39.0625 31.25 32.765625 31.25 25C31.25 24.035156 31.144531 23.09375 30.960938 22.1875L30.882813 21.875L17.1875 21.875L17.1875 26.5625L26.5625 26.5625C25.816406 30.996094 21.832031 34.375 17.1875 34.375C12.007813 34.375 7.8125 30.179688 7.8125 25C7.8125 19.820313 12.007813 15.625 17.1875 15.625C19.53125 15.625 21.667969 16.492188 23.3125 17.914063L26.671875 14.625C24.171875 12.335938 20.84375 10.9375 17.1875 10.9375 Z M 39.0625 17.1875L39.0625 21.875L34.375 21.875L34.375 25L39.0625 25L39.0625 29.6875L42.1875 29.6875L42.1875 25L46.875 25L46.875 21.875L42.1875 21.875L42.1875 17.1875Z" fill="#5B5B5B" />
</svg>