<svg viewBox="0 0 50 50">
  <path
    d="M5.906 4.969c-.043.008-.086.02-.125.031A.994.994 0 005 5.703c-.105.367.004.758.281 1.016l38 38c.399.398 1.04.398 1.438 0a1.014 1.014 0 000-1.438l-8.469-8.468c6.574-3.547 11.215-8.825 11.5-9.157.32-.375.32-.937 0-1.312C47.316 23.84 37.008 12 25 12c-3.309 0-6.465.906-9.344 2.219L6.72 5.28a1.004 1.004 0 00-.813-.312zM25 14c6.066 0 11 4.934 11 11 0 2.668-.945 5.125-2.531 7.031L28.437 27c.348-.59.563-1.266.563-2 0-2.21-1.79-4-4-4-.734 0-1.41.215-2 .563l-5.031-5.032a10.963 10.963 0 015.75-2.468C24.14 14.03 24.574 14 25 14zm-13 2.156c-5.652 3.469-9.488 7.883-9.75 8.188-.32.375-.32.937 0 1.312.418.485 10 11.477 21.438 12.282.433.03.87.062 1.312.062.313 0 .629-.016.938-.031h.03c2.247-.117 4.415-.617 6.47-1.375l-2.032-2.032A10.88 10.88 0 0125 36c-.375 0-.75-.035-1.125-.063C18.335 35.376 14 30.688 14 25c0-1.973.527-3.805 1.438-5.406L14 18.125c-1.25 1.996-2 4.352-2 6.875 0 3.09 1.07 5.922 2.875 8.156C9.77 30.438 5.797 26.536 4.344 25c1.316-1.39 4.699-4.734 9.125-7.375zm23.125.688c5.105 2.718 9.078 6.62 10.531 8.156-1.457 1.54-5.465 5.438-10.593 8.156C36.883 30.922 38 28.102 38 25c0-3.09-1.07-5.922-2.875-8.156zm-14.094 8.312a3.96 3.96 0 003.813 3.813z"
    fill="#5B5B5B" />
</svg>